<svg width="104" height="29" viewBox="0 0 104 29" fill="none" xmlns="http://www.w3.org/2000/svg">
<path d="M43.3022 21.3374H39.0214C38.3546 23.37 36.5691 24.5314 34.461 24.5314C31.6538 24.5314 29.3844 22.4989 29.2768 18.9607H43.5065C43.5065 12.508 40.495 8.06641 34.3965 8.06641C28.61 8.06641 24.9315 12.6263 24.9315 18.2293C24.9315 24.3271 29.2768 28.1127 34.5041 28.1127C38.8171 28.1127 42.4632 25.5854 43.3022 21.3481V21.3374ZM34.4073 11.7014C36.7197 11.7014 38.2578 13.1425 38.7525 15.7666H29.5027C30.0297 13.1425 32.1271 11.7014 34.4073 11.7014Z" fill="#968E8E"/>
<path d="M59.5753 8.87324C58.4997 8.33552 57.1553 8.05591 55.5957 8.05591C53.2294 8.05591 51.2719 8.70117 49.7554 9.9702V8.40004H45.4746V28.1022H49.7554V16.2185C49.7554 15.5517 49.8737 14.9387 50.1103 14.3795C50.3469 13.831 50.6696 13.3471 51.0891 12.9599C51.4978 12.5728 52.0141 12.2716 52.6164 12.0566C53.2294 11.8415 53.8963 11.7339 54.6169 11.7339C55.4666 11.7339 56.2088 11.906 56.8111 12.2501C57.4026 12.5835 57.8544 13.089 58.1555 13.7558C58.4675 14.4333 58.618 15.2614 58.618 16.2293V28.1129H62.8988V15.1861C62.8988 13.6805 62.6191 12.3792 62.0598 11.3145C61.5005 10.2498 60.6616 9.43246 59.5645 8.88399L59.5753 8.87324Z" fill="#968E8E"/>
<path d="M67.6745 7.26064C68.3736 7.26064 68.9759 7.0348 69.4707 6.57236C69.9762 6.10992 70.2236 5.52919 70.2236 4.83015C70.2236 4.49676 70.1483 4.17412 70.0085 3.88375C69.8686 3.59338 69.6858 3.34603 69.4707 3.13095C69.2556 2.92661 68.9867 2.75454 68.664 2.61474C68.3521 2.47493 68.0079 2.4104 67.653 2.4104C66.9646 2.4104 66.3623 2.64699 65.8675 3.10943C65.3728 3.58263 65.1146 4.16337 65.1146 4.83015C65.1146 5.49692 65.3728 6.10992 65.8675 6.57236C66.3623 7.02405 66.9646 7.26064 67.6637 7.26064H67.6745Z" fill="#968E8E"/>
<path d="M69.858 8.38794H65.502V28.0901H69.858V8.38794Z" fill="#968E8E"/>
<path d="M73.9773 22.4888C73.9773 24.4246 74.4936 25.9194 75.5154 26.9411C76.5372 27.9628 78.0322 28.479 79.9682 28.479C81.4955 28.479 82.883 28.1779 84.0769 27.5971L84.5501 27.3928L83.3347 23.8438L82.6356 24.188C81.8505 24.5967 81.0545 24.801 80.2694 24.801C79.6563 24.801 79.1938 24.6289 78.8496 24.274C78.5054 23.9191 78.3334 23.1986 78.3334 22.1124V12.143H83.5498V8.38972H78.3334V3.39966H73.9773V8.38972H71.5358V12.143H73.9773V22.4888Z" fill="#968E8E"/>
<path d="M102.77 11.303C102.211 10.2383 101.372 9.42101 100.275 8.87254C99.1993 8.33482 97.8548 8.05521 96.2953 8.05521C93.929 8.05521 91.9715 8.70047 90.455 9.96949V0.957275H86.1742V28.1015H90.455V16.2178C90.455 15.551 90.5733 14.938 90.8099 14.3788C91.0465 13.8303 91.3692 13.3464 91.7887 12.9592C92.1974 12.5721 92.7136 12.2709 93.316 12.0559C93.929 11.8408 94.5959 11.7332 95.3165 11.7332C96.1662 11.7332 96.9084 11.9053 97.5107 12.2494C98.1022 12.5828 98.554 13.0883 98.8551 13.7551C99.167 14.4326 99.3176 15.2607 99.3176 16.2286V28.1122H103.598V15.1854C103.598 13.6798 103.319 12.3785 102.759 11.3138L102.77 11.303Z" fill="#968E8E"/>
<path d="M22.8019 24.0792C21.694 24.0792 20.6077 23.7566 19.6935 23.1435L15.9182 20.584C19.1664 15.7015 24.5981 7.54961 26.2437 5.07609C26.5663 4.6029 26.7384 4.03292 26.7384 3.45218C26.7384 1.98958 25.6736 0.75281 24.2431 0.537722C22.0382 0.215089 19.5106 0 16.7249 0C12.7776 0 9.34652 0.430187 6.59307 0.967909V5.31269C7.52882 5.04383 8.55061 4.82874 9.63693 4.65667C13.8962 4.00065 17.0583 3.80708 21.4574 4.14046C21.7908 4.16197 21.9737 4.54912 21.7801 4.81798C20.156 7.0549 14.5953 14.7336 12.1215 18.4546C11.4761 18.1858 10.7878 17.9492 10.0349 17.7341C8.77648 17.3577 7.30295 16.9705 5.73263 17.0458C3.94719 17.1318 2.48441 17.8201 1.37658 19.0999C0.204215 20.4549 -0.269033 22.4445 0.150437 24.1545C0.806533 26.8001 3.14051 28.467 5.99076 28.467C6.30267 28.467 6.61459 28.4455 6.92651 28.4025C9.50786 28.0798 11.9171 26.5635 13.3906 24.348C13.3906 24.348 13.4229 24.2728 13.4982 24.176L17.2519 26.714C18.9083 27.8432 20.8551 28.4132 22.8664 28.3917C24.0925 28.3702 25.2111 27.9723 26.1254 27.3055L24.4152 23.7028C24.1786 23.9394 23.146 24.0577 22.7911 24.0684L22.8019 24.0792ZM6.38872 24.1114C5.74338 24.1867 4.60328 24.0684 4.36665 23.122C4.30212 22.8532 4.36666 22.2724 4.65706 21.9391C4.93671 21.6164 5.23786 21.4121 5.93698 21.3798H6.11983C6.98028 21.3798 7.91603 21.6272 8.80875 21.896C9.08839 21.9821 9.36804 22.0681 9.63693 22.1649C8.85176 23.2403 7.64713 23.9609 6.38872 24.1222V24.1114Z" fill="#968E8E"/>
</svg>
